# xmcd CD database file
#
# Track frame offsets:
#	150
#	36538
#	69929
#	86688
#	100595
#	131307
#	156746
#	164349
#	198150
#	227260
#	238786
#	258013
#
# Disc length: 3827 seconds
#
# Revision: 0
# Processed by: cddbd v1.5.2PL0 Copyright (c) Steve Scherf et al.
# Submitted via: CDex 1.70beta2
#
DISCID=930ef10c
DTITLE=Nguyên Lê - Miracles
DYEAR=1989
DGENRE=Jazz
TTITLE0=Miracles
TTITLE1=? (Question Mark)
TTITLE2=Willow
TTITLE3=The Odd Game
TTITLE4=Saari
TTITLE5=20 Fingers
TTITLE6=Cerf Volant
TTITLE7=Miss One
TTITLE8=Pacha
TTITLE9=Haiku
TTITLE10=Eyeland
TTITLE11=Miss One
EXTD=YEAR: 1989
EXTT0=
EXTT1=
EXTT2=
EXTT3=
EXTT4=
EXTT5=
EXTT6=
EXTT7=
EXTT8=
EXTT9=
EXTT10=
EXTT11=
PLAYORDER=
